<svg data-v-423bf9ae="" xmlns="http://www.w3.org/2000/svg" viewBox="0 0 217 99" class="iconLeft"><!----><!----><!----><g data-v-423bf9ae="" id="78021f40-a4ed-4eff-9849-d6273817c189" fill="#2e3034" transform="matrix(5.012531216500398,0,0,5.012531216500398,105.8294485746577,15.06759496302412)"><path d="M10.39 12.60L13.02 12.60L11.98 1.05L9.18 1.05L6.62 7.71L4.06 1.05L1.26 1.05L0.22 12.60L2.86 12.60L3.40 5.75L3.47 5.75L5.84 12.53L7.41 12.53L9.77 5.75L9.84 5.75ZM18.06 0.84C16.20 0.84 14.29 2.21 14.29 4.37C14.29 5.57 15.11 6.65 16.49 7.34C17.86 8.02 19.10 8.40 19.10 9.24C19.10 10.32 18.00 10.37 17.43 10.37C16.14 10.37 14.60 9.07 14.60 9.07L13.29 11.28C13.29 11.28 14.92 12.81 17.63 12.81C19.88 12.81 21.98 11.84 21.98 9.09C21.98 7.57 20.57 6.48 19.28 5.94C17.96 5.38 16.87 4.91 16.87 4.27C16.87 3.64 17.35 3.23 18.24 3.23C19.43 3.23 20.58 4.03 20.58 4.03L21.64 1.93C21.64 1.93 20.16 0.84 18.06 0.84Z"></path></g><!----><g data-v-423bf9ae="" id="fecde80d-1546-4c3b-a08e-01140228f55c" transform="matrix(1.0464556376139322,0,0,1.0464556376139322,-10.986588563711358,-2.3977927885707686)" stroke="none" fill="#488eff"><path d="M41.797 2.576l-30.593.533 50.147 93.648h32.926"></path></g><!----></svg>